<svg width="344" height="298" viewBox="0 0 344 298" fill="none" xmlns="http://www.w3.org/2000/svg">
<g clip-path="url(#clip0_39:267)">
<path d="M315.393 99.8189L228.139 87.4216L189.14 10.3607C182.153 -3.37524 161.907 -3.54985 154.86 10.3607L115.861 87.4216L28.6068 99.8189C12.9596 102.031 6.68879 120.83 18.036 131.598L81.1624 191.547L66.2318 276.233C63.5443 291.54 80.0874 303.006 93.9429 295.847L172 255.861L250.057 295.847C263.912 302.948 280.455 291.54 277.768 276.233L262.837 191.547L325.964 131.598C337.311 120.83 331.04 102.031 315.393 99.8189ZM232.08 181.769L246.235 262.322L172 224.315L97.7652 262.322L111.919 181.769L51.8388 124.73L134.853 112.973L172 39.6369L209.147 112.973L292.161 124.73L232.08 181.769Z" fill="white"/>
</g>
<defs>
<clipPath id="clip0_39:267">
<rect width="344" height="298" fill="white"/>
</clipPath>
</defs>
</svg>
