<svg width="376" height="308" viewBox="0 0 376 308" fill="none" xmlns="http://www.w3.org/2000/svg">
<path d="M187.999 147.47C158.101 147.47 141.977 176.774 128.791 198.073C125.657 203.248 119.39 203.789 115.93 198.073C82.7031 144.283 46.3423 142.719 12.3968 175.811C5.73829 181.768 -1.24664 175.029 0.189514 168.952C19.2512 86.9428 90.2755 37.6652 167.11 30.0238V19.2538C167.11 8.60402 176.445 0 187.999 0C199.554 0 208.889 8.60402 208.889 19.2538V30.0238C285.462 37.6652 357.139 86.9428 375.809 168.952C377.245 175.029 370.326 181.828 363.602 175.811C329.983 143.08 293.361 144.223 260.068 198.073C256.608 203.789 250.341 203.248 247.208 198.073C245.576 195.426 226.189 147.184 187.999 147.47ZM187.999 147.47C195.963 147.47 202.948 149.277 208.889 154.03V259.866C208.889 286.4 185.453 308 156.665 308C134.6 308 114.755 295.124 107.444 275.93C103.593 265.943 109.272 254.932 120.174 251.382C131.075 247.832 142.956 253.067 146.808 263.115C148.048 266.364 151.573 269.553 156.665 269.553C162.41 269.553 167.11 265.221 167.11 259.926L172.189 150.461C172.189 150.461 179.97 147.53 187.999 147.47Z" stroke="white" stroke-width="50"/>
</svg>
